<?xml version="1.0" standalone="no"?>
<!DOCTYPE svg PUBLIC "-//W3C//DTD SVG 20010904//EN"
 "http://www.w3.org/TR/2001/REC-SVG-20010904/DTD/svg10.dtd">
<svg version="1.0" xmlns="http://www.w3.org/2000/svg"
 width="512.000000pt" height="512.000000pt" viewBox="0 0 512.000000 512.000000"
 preserveAspectRatio="xMidYMid meet">

<g transform="translate(0.000000,512.000000) scale(0.100000,-0.100000)"
fill="#000000" stroke="none">
<path d="M0 2560 l0 -2560 2560 0 2560 0 0 2560 0 2560 -2560 0 -2560 0 0
-2560z m955 2031 c45 -20 91 -69 110 -116 7 -16 32 -130 56 -252 l43 -223
1756 0 c1709 0 1756 -1 1797 -20 46 -20 79 -64 89 -117 4 -22 -11 -101 -46
-245 -28 -117 -65 -271 -81 -343 -28 -119 -110 -462 -219 -918 -49 -204 -72
-250 -147 -294 l-48 -28 -1346 -3 -1346 -2 18 -78 c10 -42 18 -87 19 -99 l0
-23 1311 0 c1224 0 1313 -1 1340 -17 40 -24 73 -93 64 -135 -9 -40 -39 -84
-68 -99 -15 -9 -392 -11 -1411 -10 -1382 2 -1390 2 -1423 22 -60 37 -77 84
-132 359 -28 140 -62 309 -76 375 -14 66 -30 140 -35 165 -18 90 -91 437 -104
495 -34 154 -87 404 -115 540 -26 129 -92 447 -148 718 l-16 77 -279 0 c-307
0 -323 3 -371 59 -39 46 -39 126 0 172 48 57 56 58 428 58 309 1 344 -1 380
-18z m1117 -3198 c77 -36 149 -107 186 -182 24 -50 27 -67 27 -156 0 -90 -3
-106 -29 -159 -39 -79 -98 -136 -182 -177 -63 -31 -77 -34 -164 -34 -87 0
-101 3 -162 33 -229 111 -285 404 -113 590 51 56 117 97 179 113 17 5 68 7
113 5 65 -3 95 -10 145 -33z m1849 0 c81 -38 144 -100 183 -183 27 -57 31 -75
30 -150 -1 -108 -26 -176 -95 -253 -35 -39 -71 -67 -117 -89 -61 -30 -75 -33
-162 -33 -86 0 -101 3 -160 31 -166 81 -252 258 -206 429 18 70 41 111 94 168
79 84 167 118 293 113 59 -2 89 -9 140 -33z"/>
<path d="M1223 3703 c12 -42 31 -133 76 -353 l47 -235 399 -3 398 -2 -6 77
c-4 43 -13 164 -22 268 -8 105 -17 207 -21 228 l-6 37 -435 0 c-409 0 -434 -1
-430 -17z"/>
<path d="M2394 3658 c3 -35 13 -151 21 -258 8 -107 18 -216 21 -242 l6 -48
418 0 419 0 6 53 c14 109 51 542 48 550 -2 4 -216 7 -475 7 l-471 0 7 -62z"/>
<path d="M3625 3707 c-2 -6 -9 -73 -15 -147 -6 -74 -15 -173 -20 -220 -5 -47
-12 -118 -16 -157 l-6 -73 358 1 c198 1 372 4 389 8 28 6 30 10 51 106 43 199
94 413 104 439 5 15 10 33 10 39 0 18 -849 22 -855 4z"/>
<path d="M1405 2818 c7 -33 105 -519 105 -524 0 -2 160 -4 355 -4 l356 0 -5
33 c-3 17 -10 93 -16 167 -6 74 -16 179 -21 234 -5 54 -9 102 -9 107 0 5 -165
9 -385 9 l-385 0 5 -22z"/>
<path d="M2466 2783 c3 -32 9 -105 14 -163 5 -58 12 -143 15 -190 3 -47 8 -97
11 -112 l6 -28 344 0 c267 0 346 3 349 13 3 6 12 98 20 202 9 105 19 223 22
263 l6 72 -396 0 -396 0 5 -57z"/>
<path d="M3545 2828 c-3 -11 -24 -234 -42 -466 l-6 -72 328 2 329 3 58 260
c32 143 58 266 58 273 0 9 -79 12 -360 12 -280 0 -362 -3 -365 -12z"/>
</g>
</svg>
