<?xml version="1.0" standalone="no"?>
<!DOCTYPE svg PUBLIC "-//W3C//DTD SVG 20010904//EN"
 "http://www.w3.org/TR/2001/REC-SVG-20010904/DTD/svg10.dtd">
<svg version="1.1" xmlns="http://www.w3.org/2000/svg" viewBox="0 0 16 16" width="16px" height="16px">

<g transform="translate(0.000000,16.000000) scale(0.100000,-0.100000)"
fill="#000000" stroke="none">
<path d="M0 80 l0 -80 80 0 80 0 -1 58 -1 57 -16 -47 c-8 -27 -20 -48 -25 -48
-5 0 -7 8 -5 17 4 14 -1 18 -22 18 -21 0 -26 -4 -22 -18 2 -9 0 -17 -5 -17
-10 0 -33 65 -33 93 0 8 -6 17 -13 20 -6 2 -8 8 -4 13 4 5 11 4 15 -2 4 -7 35
-13 70 -16 55 -4 62 -2 62 14 0 16 -9 18 -80 18 l-80 0 0 -80z"/>
<path d="M45 110 c-3 -5 1 -10 10 -10 9 0 13 5 10 10 -3 6 -8 10 -10 10 -2 0
-7 -4 -10 -10z"/>
<path d="M80 110 c0 -5 5 -10 11 -10 5 0 7 5 4 10 -3 6 -8 10 -11 10 -2 0 -4
-4 -4 -10z"/>
<path d="M50 80 c0 -5 5 -10 10 -10 6 0 10 5 10 10 0 6 -4 10 -10 10 -5 0 -10
-4 -10 -10z"/>
<path d="M80 80 c0 -5 5 -10 10 -10 6 0 10 5 10 10 0 6 -4 10 -10 10 -5 0 -10
-4 -10 -10z"/>
<path d="M110 80 c0 -5 5 -10 10 -10 6 0 10 5 10 10 0 6 -4 10 -10 10 -5 0
-10 -4 -10 -10z"/>
</g>
</svg>
