<?xml version="1.0" standalone="no"?>
<!DOCTYPE svg PUBLIC "-//W3C//DTD SVG 20010904//EN"
 "http://www.w3.org/TR/2001/REC-SVG-20010904/DTD/svg10.dtd">
<svg version="1.1" xmlns="http://www.w3.org/2000/svg" viewBox="0 0 16 16" width="16px" height="16px">

<g transform="translate(0.000000,512.000000) scale(0.100000,-0.100000)"
fill="#000000" stroke="none">
<path d="M2460 4120 c-203 -44 -384 -140 -536 -284 l-76 -71 14 -60 c19 -80
33 -77 134 23 122 121 243 196 399 245 234 74 484 58 707 -45 l87 -40 68 12
c111 19 109 18 72 46 -94 69 -274 145 -414 175 -121 25 -336 25 -455 -1z"/>
<path d="M3641 3464 c-1 -103 3 -170 14 -215 36 -156 29 -343 -21 -500 -22
-69 -24 -93 -22 -210 l3 -131 38 63 c90 153 137 322 144 517 8 215 -26 377
-116 552 l-39 75 -1 -151z"/>
<path d="M1666 3465 c-66 -154 -97 -367 -79 -547 11 -113 54 -271 94 -350 11
-21 19 -41 19 -47 0 -5 -54 -40 -120 -78 l-120 -70 233 -62 c127 -34 235 -61
238 -61 4 0 9 10 11 23 3 12 31 116 62 231 31 115 55 210 54 211 -2 2 -55 -28
-118 -66 -63 -37 -118 -68 -121 -69 -8 0 -65 144 -85 217 -23 83 -30 328 -11
415 14 64 13 71 -13 180 l-27 113 -17 -40z"/>
<path d="M3432 2253 c-18 -4 -22 -9 -16 -26 10 -33 12 -33 47 1 33 34 30 37
-31 25z"/>
<path d="M2905 2073 c-33 -8 -70 -16 -82 -19 -19 -4 -23 -11 -23 -45 0 -22 -5
-49 -10 -60 -9 -17 -7 -19 19 -19 37 0 167 25 203 39 l27 10 -27 55 c-15 31
-31 55 -37 54 -5 0 -37 -7 -70 -15z"/>
<path d="M2286 2027 l-49 -10 49 -18 c63 -24 64 -24 64 11 0 17 -3 29 -7 29
-5 -1 -30 -6 -57 -12z"/>
<path d="M376 1741 c-3 -4 22 -100 55 -212 117 -397 108 -371 131 -367 19 3
29 28 79 210 31 114 60 219 63 233 7 28 26 34 26 8 0 -16 57 -233 101 -386 18
-59 23 -68 42 -65 18 3 31 36 104 283 45 154 80 286 78 293 -2 6 -13 12 -23
12 -16 0 -29 -37 -87 -240 -38 -132 -72 -240 -77 -240 -4 0 -8 5 -8 12 0 6
-28 109 -61 230 -56 199 -64 218 -84 218 -20 0 -27 -19 -85 -230 -35 -126 -66
-230 -69 -230 -4 0 -30 87 -60 193 -86 304 -80 287 -101 287 -10 0 -21 -4 -24
-9z"/>
<path d="M2005 1738 c-3 -7 -4 -139 -3 -293 l3 -280 23 -3 c21 -3 22 0 22 70
0 71 1 74 34 100 l33 27 79 -99 c56 -71 85 -99 98 -97 11 1 21 7 23 13 2 6
-35 57 -81 114 l-85 104 62 55 c112 101 112 101 94 118 -14 15 -27 6 -134 -90
l-118 -106 -5 187 c-4 168 -7 187 -23 190 -9 2 -19 -3 -22 -10z"/>
<path d="M2430 1493 c0 -239 2 -260 20 -290 20 -33 50 -47 91 -41 35 5 33 42
-2 46 -56 7 -58 16 -61 288 l-3 249 -22 3 -23 3 0 -258z"/>
<path d="M1205 1571 c-75 -19 -119 -59 -143 -130 -33 -95 5 -211 84 -257 59
-35 150 -37 212 -5 41 21 55 47 29 56 -7 3 -30 -4 -52 -15 -96 -49 -212 1
-231 100 l-6 30 168 2 169 3 -3 43 c-3 55 -33 114 -70 141 -24 17 -103 43
-122 40 -3 -1 -18 -4 -35 -8z m104 -59 c39 -19 66 -54 75 -94 l6 -28 -146 0
-146 0 7 27 c23 92 121 138 204 95z"/>
<path d="M1656 1569 c-91 -21 -145 -98 -146 -204 0 -124 78 -207 198 -208 65
0 152 33 152 59 0 24 -23 25 -65 4 -76 -39 -168 -18 -212 49 -13 19 -23 45
-23 57 l0 24 165 0 165 0 0 39 c0 123 -112 208 -234 180z m129 -63 c24 -16 46
-50 59 -93 l7 -23 -145 0 c-135 0 -146 1 -146 19 0 29 42 84 80 104 41 21 107
18 145 -7z"/>
<path d="M2605 1561 c-3 -5 35 -93 84 -195 l90 -186 -40 -89 c-21 -49 -39 -93
-39 -99 0 -13 24 -22 37 -14 16 12 265 570 258 581 -22 37 -50 -5 -135 -204
-24 -55 -46 -103 -50 -108 -3 -4 -42 67 -85 158 -58 122 -83 165 -96 165 -10
0 -20 -4 -24 -9z"/>
</g>
</svg>
